<mxfile host="Electron" modified="2024-01-07T09:32:39.247Z" agent="Mozilla/5.0 (Macintosh; Intel Mac OS X 10_15_7) AppleWebKit/537.36 (KHTML, like Gecko) draw.io/21.2.8 Chrome/112.0.5615.165 Electron/24.2.0 Safari/537.36" etag="_Nj9e9lyIY91UmzBd821" version="21.2.8" type="device">
  <diagram name="Page-1" id="jcXOYlWNpSIKpAAfXEgp">
    <mxGraphModel dx="2848" dy="2046" grid="1" gridSize="10" guides="1" tooltips="1" connect="1" arrows="1" fold="1" page="1" pageScale="1" pageWidth="827" pageHeight="1169" math="0" shadow="0">
      <root>
        <mxCell id="0" />
        <mxCell id="1" parent="0" />
        <mxCell id="g-sSblGUvgfWOpClBhpP-138" value="" style="group" parent="1" vertex="1" connectable="0">
          <mxGeometry x="-1290" y="-1010" width="1980" height="1610" as="geometry" />
        </mxCell>
        <mxCell id="g-sSblGUvgfWOpClBhpP-83" style="edgeStyle=entityRelationEdgeStyle;rounded=0;orthogonalLoop=1;jettySize=auto;html=1;entryX=0;entryY=0.3333333333333333;entryDx=0;entryDy=0;entryPerimeter=0;" parent="g-sSblGUvgfWOpClBhpP-138" source="g-sSblGUvgfWOpClBhpP-82" target="g-sSblGUvgfWOpClBhpP-56" edge="1">
          <mxGeometry relative="1" as="geometry" />
        </mxCell>
        <mxCell id="g-sSblGUvgfWOpClBhpP-134" value="" style="html=1;dashed=1;whiteSpace=wrap;fillColor=none;dashPattern=1 1;" parent="g-sSblGUvgfWOpClBhpP-138" vertex="1">
          <mxGeometry width="1980" height="1610" as="geometry" />
        </mxCell>
        <mxCell id="g-sSblGUvgfWOpClBhpP-8" value="" style="group" parent="g-sSblGUvgfWOpClBhpP-138" vertex="1" connectable="0">
          <mxGeometry x="1195" y="1290" width="170" height="100" as="geometry" />
        </mxCell>
        <mxCell id="g-sSblGUvgfWOpClBhpP-6" value="" style="shape=process;whiteSpace=wrap;html=1;backgroundOutline=1;" parent="g-sSblGUvgfWOpClBhpP-8" vertex="1">
          <mxGeometry width="170" height="70" as="geometry" />
        </mxCell>
        <mxCell id="g-sSblGUvgfWOpClBhpP-5" value="Data Protection Board of India" style="text;html=1;strokeColor=none;fillColor=none;align=center;verticalAlign=middle;whiteSpace=wrap;rounded=0;" parent="g-sSblGUvgfWOpClBhpP-8" vertex="1">
          <mxGeometry x="20" y="20" width="130" height="30" as="geometry" />
        </mxCell>
        <mxCell id="g-sSblGUvgfWOpClBhpP-7" value="&lt;b&gt;Board&lt;/b&gt;" style="text;html=1;strokeColor=none;fillColor=none;align=center;verticalAlign=middle;whiteSpace=wrap;rounded=0;" parent="g-sSblGUvgfWOpClBhpP-8" vertex="1">
          <mxGeometry x="55" y="70" width="60" height="30" as="geometry" />
        </mxCell>
        <mxCell id="g-sSblGUvgfWOpClBhpP-9" value="" style="group" parent="g-sSblGUvgfWOpClBhpP-138" vertex="1" connectable="0">
          <mxGeometry x="1580" y="980" width="190" height="80" as="geometry" />
        </mxCell>
        <mxCell id="g-sSblGUvgfWOpClBhpP-2" value="&lt;b&gt;Appellate Tribunal&lt;/b&gt;" style="shape=mxgraph.pid.pumps.turbine;html=1;pointerEvents=1;align=center;verticalLabelPosition=bottom;verticalAlign=top;dashed=0;" parent="g-sSblGUvgfWOpClBhpP-9" vertex="1">
          <mxGeometry width="190" height="80" as="geometry" />
        </mxCell>
        <mxCell id="g-sSblGUvgfWOpClBhpP-3" value="Telecom Disputes Settlement and Appellate&lt;br/&gt;Tribunal" style="text;html=1;strokeColor=none;fillColor=none;align=center;verticalAlign=middle;whiteSpace=wrap;rounded=0;" parent="g-sSblGUvgfWOpClBhpP-9" vertex="1">
          <mxGeometry x="19.5" y="25" width="151" height="30" as="geometry" />
        </mxCell>
        <mxCell id="g-sSblGUvgfWOpClBhpP-10" value="Allowed Legitimate Use" style="shape=cylinder3;whiteSpace=wrap;html=1;boundedLbl=1;backgroundOutline=1;size=15;" parent="g-sSblGUvgfWOpClBhpP-138" vertex="1">
          <mxGeometry x="1644" y="510" width="60" height="80" as="geometry" />
        </mxCell>
        <mxCell id="g-sSblGUvgfWOpClBhpP-16" value="&lt;i&gt;Registered With&lt;/i&gt;" style="rounded=0;orthogonalLoop=1;jettySize=auto;html=1;entryX=0;entryY=0.5;entryDx=0;entryDy=0;edgeStyle=orthogonalEdgeStyle;curved=1;" parent="g-sSblGUvgfWOpClBhpP-138" source="g-sSblGUvgfWOpClBhpP-15" target="g-sSblGUvgfWOpClBhpP-6" edge="1">
          <mxGeometry relative="1" as="geometry" />
        </mxCell>
        <mxCell id="g-sSblGUvgfWOpClBhpP-15" value="&lt;b&gt;Consent Manager&lt;/b&gt;" style="shape=umlActor;verticalLabelPosition=bottom;verticalAlign=top;html=1;outlineConnect=0;" parent="g-sSblGUvgfWOpClBhpP-138" vertex="1">
          <mxGeometry x="1030" y="1240" width="30" height="60" as="geometry" />
        </mxCell>
        <mxCell id="g-sSblGUvgfWOpClBhpP-31" value="" style="group" parent="g-sSblGUvgfWOpClBhpP-138" vertex="1" connectable="0">
          <mxGeometry x="317.5" y="1070" width="340" height="120" as="geometry" />
        </mxCell>
        <mxCell id="g-sSblGUvgfWOpClBhpP-22" value="&lt;b&gt;Person w Disablity&lt;/b&gt;" style="shape=umlActor;verticalLabelPosition=bottom;verticalAlign=top;html=1;outlineConnect=0;" parent="g-sSblGUvgfWOpClBhpP-31" vertex="1">
          <mxGeometry x="55" y="15" width="30" height="60" as="geometry" />
        </mxCell>
        <mxCell id="g-sSblGUvgfWOpClBhpP-28" value="&lt;i&gt;Lawful Guardian Of&lt;/i&gt;" style="rounded=0;orthogonalLoop=1;jettySize=auto;html=1;entryX=0.5;entryY=0.5;entryDx=0;entryDy=0;entryPerimeter=0;exitX=0.5;exitY=0.5;exitDx=0;exitDy=0;exitPerimeter=0;" parent="g-sSblGUvgfWOpClBhpP-31" source="g-sSblGUvgfWOpClBhpP-27" target="g-sSblGUvgfWOpClBhpP-22" edge="1">
          <mxGeometry relative="1" as="geometry" />
        </mxCell>
        <mxCell id="g-sSblGUvgfWOpClBhpP-27" value="&lt;b&gt;Person w Disablity&lt;/b&gt;" style="shape=umlActor;verticalLabelPosition=bottom;verticalAlign=top;html=1;outlineConnect=0;" parent="g-sSblGUvgfWOpClBhpP-31" vertex="1">
          <mxGeometry x="230" y="15" width="30" height="60" as="geometry" />
        </mxCell>
        <mxCell id="g-sSblGUvgfWOpClBhpP-33" value="" style="rounded=0;whiteSpace=wrap;html=1;fillColor=none;dashed=1;" parent="g-sSblGUvgfWOpClBhpP-31" vertex="1">
          <mxGeometry width="340" height="120" as="geometry" />
        </mxCell>
        <mxCell id="g-sSblGUvgfWOpClBhpP-36" value="" style="group" parent="g-sSblGUvgfWOpClBhpP-138" vertex="1" connectable="0">
          <mxGeometry x="317.5" y="1210" width="340" height="120" as="geometry" />
        </mxCell>
        <mxCell id="g-sSblGUvgfWOpClBhpP-23" value="" style="group" parent="g-sSblGUvgfWOpClBhpP-36" vertex="1" connectable="0">
          <mxGeometry x="70" y="30" width="170" height="60" as="geometry" />
        </mxCell>
        <mxCell id="g-sSblGUvgfWOpClBhpP-13" value="&lt;b&gt;Child&lt;/b&gt;" style="shape=umlActor;verticalLabelPosition=bottom;verticalAlign=top;html=1;outlineConnect=0;" parent="g-sSblGUvgfWOpClBhpP-23" vertex="1">
          <mxGeometry y="15" width="20" height="30" as="geometry" />
        </mxCell>
        <mxCell id="g-sSblGUvgfWOpClBhpP-19" style="edgeStyle=orthogonalEdgeStyle;rounded=0;orthogonalLoop=1;jettySize=auto;html=1;entryX=0.5;entryY=0.5;entryDx=0;entryDy=0;entryPerimeter=0;" parent="g-sSblGUvgfWOpClBhpP-23" source="g-sSblGUvgfWOpClBhpP-18" target="g-sSblGUvgfWOpClBhpP-13" edge="1">
          <mxGeometry relative="1" as="geometry" />
        </mxCell>
        <mxCell id="g-sSblGUvgfWOpClBhpP-20" value="&lt;i&gt;Lawful Guardian Of /&lt;br&gt;Parent Of&lt;br&gt;&lt;/i&gt;" style="edgeLabel;html=1;align=center;verticalAlign=middle;resizable=0;points=[];" parent="g-sSblGUvgfWOpClBhpP-19" vertex="1" connectable="0">
          <mxGeometry x="-0.1446" y="-2" relative="1" as="geometry">
            <mxPoint as="offset" />
          </mxGeometry>
        </mxCell>
        <mxCell id="g-sSblGUvgfWOpClBhpP-18" value="&lt;b&gt;Adult&lt;/b&gt;" style="shape=umlActor;verticalLabelPosition=bottom;verticalAlign=top;html=1;outlineConnect=0;" parent="g-sSblGUvgfWOpClBhpP-23" vertex="1">
          <mxGeometry x="140" width="30" height="60" as="geometry" />
        </mxCell>
        <mxCell id="g-sSblGUvgfWOpClBhpP-30" value="" style="rounded=0;whiteSpace=wrap;html=1;fillColor=none;dashed=1;" parent="g-sSblGUvgfWOpClBhpP-36" vertex="1">
          <mxGeometry width="340" height="120" as="geometry" />
        </mxCell>
        <mxCell id="g-sSblGUvgfWOpClBhpP-37" value="" style="group" parent="g-sSblGUvgfWOpClBhpP-138" vertex="1" connectable="0">
          <mxGeometry x="317.5" y="1340" width="340" height="120" as="geometry" />
        </mxCell>
        <mxCell id="g-sSblGUvgfWOpClBhpP-17" value="&lt;b&gt;Individual Adult&lt;/b&gt;" style="shape=umlActor;verticalLabelPosition=bottom;verticalAlign=top;html=1;outlineConnect=0;" parent="g-sSblGUvgfWOpClBhpP-37" vertex="1">
          <mxGeometry x="155" y="30" width="30" height="60" as="geometry" />
        </mxCell>
        <mxCell id="g-sSblGUvgfWOpClBhpP-32" value="" style="rounded=0;whiteSpace=wrap;html=1;fillColor=none;dashed=1;" parent="g-sSblGUvgfWOpClBhpP-37" vertex="1">
          <mxGeometry width="340" height="120" as="geometry" />
        </mxCell>
        <mxCell id="g-sSblGUvgfWOpClBhpP-38" style="rounded=0;orthogonalLoop=1;jettySize=auto;html=1;entryX=-0.016;entryY=0.676;entryDx=0;entryDy=0;entryPerimeter=0;edgeStyle=isometricEdgeStyle;" parent="g-sSblGUvgfWOpClBhpP-138" source="g-sSblGUvgfWOpClBhpP-33" target="g-sSblGUvgfWOpClBhpP-123" edge="1">
          <mxGeometry relative="1" as="geometry" />
        </mxCell>
        <mxCell id="g-sSblGUvgfWOpClBhpP-39" style="rounded=0;orthogonalLoop=1;jettySize=auto;html=1;exitX=1;exitY=0;exitDx=0;exitDy=0;entryX=-0.032;entryY=0.685;entryDx=0;entryDy=0;entryPerimeter=0;edgeStyle=isometricEdgeStyle;" parent="g-sSblGUvgfWOpClBhpP-138" source="g-sSblGUvgfWOpClBhpP-30" target="g-sSblGUvgfWOpClBhpP-123" edge="1">
          <mxGeometry relative="1" as="geometry">
            <mxPoint x="1300" y="1120" as="targetPoint" />
            <Array as="points">
              <mxPoint x="820" y="1120" />
            </Array>
          </mxGeometry>
        </mxCell>
        <mxCell id="g-sSblGUvgfWOpClBhpP-40" value="&lt;i&gt;&amp;nbsp; Is&amp;nbsp;&amp;nbsp;&lt;/i&gt;" style="rounded=0;orthogonalLoop=1;jettySize=auto;html=1;exitX=1;exitY=0.5;exitDx=0;exitDy=0;entryX=-0.024;entryY=0.685;entryDx=0;entryDy=0;entryPerimeter=0;edgeStyle=isometricEdgeStyle;" parent="g-sSblGUvgfWOpClBhpP-138" source="g-sSblGUvgfWOpClBhpP-32" target="g-sSblGUvgfWOpClBhpP-123" edge="1">
          <mxGeometry x="0.621" y="5" relative="1" as="geometry">
            <mxPoint x="1380" y="1080" as="targetPoint" />
            <mxPoint as="offset" />
          </mxGeometry>
        </mxCell>
        <mxCell id="g-sSblGUvgfWOpClBhpP-44" value="" style="group" parent="g-sSblGUvgfWOpClBhpP-138" vertex="1" connectable="0">
          <mxGeometry x="690" y="750" width="330" height="130" as="geometry" />
        </mxCell>
        <mxCell id="g-sSblGUvgfWOpClBhpP-42" value="information, facts, concepts, opinions or&lt;br/&gt;instructions in a manner suitable for communication, interpretation or processing by&lt;br/&gt;human beings or by automated means;" style="shape=note;whiteSpace=wrap;html=1;backgroundOutline=1;darkOpacity=0.05;" parent="g-sSblGUvgfWOpClBhpP-44" vertex="1">
          <mxGeometry width="330" height="100" as="geometry" />
        </mxCell>
        <mxCell id="g-sSblGUvgfWOpClBhpP-43" value="&lt;b&gt;Data&lt;/b&gt;" style="text;html=1;strokeColor=none;fillColor=none;align=center;verticalAlign=middle;whiteSpace=wrap;rounded=0;" parent="g-sSblGUvgfWOpClBhpP-44" vertex="1">
          <mxGeometry x="135" y="100" width="60" height="30" as="geometry" />
        </mxCell>
        <mxCell id="g-sSblGUvgfWOpClBhpP-47" value="" style="group" parent="g-sSblGUvgfWOpClBhpP-138" vertex="1" connectable="0">
          <mxGeometry x="1250" y="780" width="60" height="85" as="geometry" />
        </mxCell>
        <mxCell id="g-sSblGUvgfWOpClBhpP-91" value="" style="group" parent="g-sSblGUvgfWOpClBhpP-47" vertex="1" connectable="0">
          <mxGeometry width="60" height="85" as="geometry" />
        </mxCell>
        <mxCell id="g-sSblGUvgfWOpClBhpP-45" value="" style="shape=note;whiteSpace=wrap;html=1;backgroundOutline=1;darkOpacity=0.05;" parent="g-sSblGUvgfWOpClBhpP-91" vertex="1">
          <mxGeometry width="55" height="45" as="geometry" />
        </mxCell>
        <mxCell id="g-sSblGUvgfWOpClBhpP-46" value="&lt;b&gt;Personal Data&lt;/b&gt;" style="text;html=1;strokeColor=none;fillColor=none;align=center;verticalAlign=middle;whiteSpace=wrap;rounded=0;" parent="g-sSblGUvgfWOpClBhpP-91" vertex="1">
          <mxGeometry y="55" width="60" height="30" as="geometry" />
        </mxCell>
        <mxCell id="g-sSblGUvgfWOpClBhpP-92" style="edgeStyle=orthogonalEdgeStyle;rounded=0;orthogonalLoop=1;jettySize=auto;html=1;exitX=0.5;exitY=1;exitDx=0;exitDy=0;exitPerimeter=0;" parent="g-sSblGUvgfWOpClBhpP-91" source="g-sSblGUvgfWOpClBhpP-45" target="g-sSblGUvgfWOpClBhpP-45" edge="1">
          <mxGeometry relative="1" as="geometry" />
        </mxCell>
        <mxCell id="g-sSblGUvgfWOpClBhpP-48" style="rounded=0;orthogonalLoop=1;jettySize=auto;html=1;entryX=0.995;entryY=0.546;entryDx=0;entryDy=0;entryPerimeter=0;edgeStyle=orthogonalEdgeStyle;curved=1;" parent="g-sSblGUvgfWOpClBhpP-138" source="g-sSblGUvgfWOpClBhpP-45" target="g-sSblGUvgfWOpClBhpP-42" edge="1">
          <mxGeometry relative="1" as="geometry" />
        </mxCell>
        <mxCell id="g-sSblGUvgfWOpClBhpP-55" value="&lt;i&gt;Identifies Individual&#39;s&lt;/i&gt;" style="edgeLabel;html=1;align=center;verticalAlign=middle;resizable=0;points=[];" parent="g-sSblGUvgfWOpClBhpP-48" vertex="1" connectable="0">
          <mxGeometry x="-0.288" y="-2" relative="1" as="geometry">
            <mxPoint as="offset" />
          </mxGeometry>
        </mxCell>
        <mxCell id="g-sSblGUvgfWOpClBhpP-49" value="&lt;b&gt;Individual&lt;/b&gt;" style="shape=umlActor;verticalLabelPosition=bottom;verticalAlign=top;html=1;outlineConnect=0;" parent="g-sSblGUvgfWOpClBhpP-138" vertex="1">
          <mxGeometry x="190" y="960" width="30" height="60" as="geometry" />
        </mxCell>
        <mxCell id="g-sSblGUvgfWOpClBhpP-50" style="edgeStyle=orthogonalEdgeStyle;rounded=0;orthogonalLoop=1;jettySize=auto;html=1;curved=1;entryX=1;entryY=0.3333333333333333;entryDx=0;entryDy=0;entryPerimeter=0;" parent="g-sSblGUvgfWOpClBhpP-138" source="g-sSblGUvgfWOpClBhpP-33" target="g-sSblGUvgfWOpClBhpP-49" edge="1">
          <mxGeometry relative="1" as="geometry">
            <Array as="points">
              <mxPoint x="290" y="1110" />
              <mxPoint x="290" y="980" />
            </Array>
          </mxGeometry>
        </mxCell>
        <mxCell id="g-sSblGUvgfWOpClBhpP-51" style="edgeStyle=orthogonalEdgeStyle;rounded=0;orthogonalLoop=1;jettySize=auto;html=1;curved=1;entryX=1;entryY=0.3333333333333333;entryDx=0;entryDy=0;entryPerimeter=0;" parent="g-sSblGUvgfWOpClBhpP-138" source="g-sSblGUvgfWOpClBhpP-30" target="g-sSblGUvgfWOpClBhpP-49" edge="1">
          <mxGeometry relative="1" as="geometry">
            <mxPoint x="205" y="1020" as="targetPoint" />
          </mxGeometry>
        </mxCell>
        <mxCell id="g-sSblGUvgfWOpClBhpP-52" style="edgeStyle=orthogonalEdgeStyle;rounded=0;orthogonalLoop=1;jettySize=auto;html=1;curved=1;entryX=1;entryY=0.3333333333333333;entryDx=0;entryDy=0;entryPerimeter=0;" parent="g-sSblGUvgfWOpClBhpP-138" source="g-sSblGUvgfWOpClBhpP-32" target="g-sSblGUvgfWOpClBhpP-49" edge="1">
          <mxGeometry relative="1" as="geometry">
            <mxPoint x="220" y="990" as="targetPoint" />
            <Array as="points">
              <mxPoint x="260" y="1400" />
              <mxPoint x="260" y="980" />
            </Array>
          </mxGeometry>
        </mxCell>
        <mxCell id="g-sSblGUvgfWOpClBhpP-53" value="&lt;i&gt;&amp;nbsp; Is&amp;nbsp;&amp;nbsp;&lt;/i&gt;" style="edgeLabel;html=1;align=center;verticalAlign=middle;resizable=0;points=[];" parent="g-sSblGUvgfWOpClBhpP-52" vertex="1" connectable="0">
          <mxGeometry x="0.7997" relative="1" as="geometry">
            <mxPoint as="offset" />
          </mxGeometry>
        </mxCell>
        <mxCell id="g-sSblGUvgfWOpClBhpP-56" value="&lt;b&gt;Person&lt;/b&gt;" style="shape=umlActor;verticalLabelPosition=bottom;verticalAlign=top;html=1;outlineConnect=0;" parent="g-sSblGUvgfWOpClBhpP-138" vertex="1">
          <mxGeometry x="847" y="600" width="30" height="60" as="geometry" />
        </mxCell>
        <mxCell id="g-sSblGUvgfWOpClBhpP-57" value="" style="edgeStyle=entityRelationEdgeStyle;rounded=0;orthogonalLoop=1;jettySize=auto;html=1;entryX=0;entryY=0.3333333333333333;entryDx=0;entryDy=0;entryPerimeter=0;exitX=0.25;exitY=0.1;exitDx=0;exitDy=0;exitPerimeter=0;" parent="g-sSblGUvgfWOpClBhpP-138" source="g-sSblGUvgfWOpClBhpP-49" target="g-sSblGUvgfWOpClBhpP-56" edge="1">
          <mxGeometry relative="1" as="geometry" />
        </mxCell>
        <mxCell id="g-sSblGUvgfWOpClBhpP-63" value="" style="group" parent="g-sSblGUvgfWOpClBhpP-138" vertex="1" connectable="0">
          <mxGeometry x="175.5" y="650" width="165" height="105" as="geometry" />
        </mxCell>
        <mxCell id="g-sSblGUvgfWOpClBhpP-58" value="" style="rounded=0;whiteSpace=wrap;html=1;" parent="g-sSblGUvgfWOpClBhpP-63" vertex="1">
          <mxGeometry width="165" height="75" as="geometry" />
        </mxCell>
        <mxCell id="g-sSblGUvgfWOpClBhpP-59" value="" style="shape=umlActor;verticalLabelPosition=bottom;verticalAlign=top;html=1;outlineConnect=0;" parent="g-sSblGUvgfWOpClBhpP-63" vertex="1">
          <mxGeometry x="15" y="5" width="30" height="60" as="geometry" />
        </mxCell>
        <mxCell id="g-sSblGUvgfWOpClBhpP-60" value="" style="shape=umlActor;verticalLabelPosition=bottom;verticalAlign=top;html=1;outlineConnect=0;" parent="g-sSblGUvgfWOpClBhpP-63" vertex="1">
          <mxGeometry x="65" y="5" width="30" height="60" as="geometry" />
        </mxCell>
        <mxCell id="g-sSblGUvgfWOpClBhpP-61" value="" style="shape=umlActor;verticalLabelPosition=bottom;verticalAlign=top;html=1;outlineConnect=0;" parent="g-sSblGUvgfWOpClBhpP-63" vertex="1">
          <mxGeometry x="115" y="5" width="30" height="60" as="geometry" />
        </mxCell>
        <mxCell id="g-sSblGUvgfWOpClBhpP-62" value="&lt;b&gt;Hindu Undivided Family&lt;/b&gt;" style="text;html=1;strokeColor=none;fillColor=none;align=center;verticalAlign=middle;whiteSpace=wrap;rounded=0;" parent="g-sSblGUvgfWOpClBhpP-63" vertex="1">
          <mxGeometry x="17.5" y="75" width="130" height="30" as="geometry" />
        </mxCell>
        <mxCell id="g-sSblGUvgfWOpClBhpP-67" style="edgeStyle=entityRelationEdgeStyle;rounded=0;orthogonalLoop=1;jettySize=auto;html=1;entryX=0;entryY=0.3333333333333333;entryDx=0;entryDy=0;entryPerimeter=0;" parent="g-sSblGUvgfWOpClBhpP-138" source="g-sSblGUvgfWOpClBhpP-66" target="g-sSblGUvgfWOpClBhpP-56" edge="1">
          <mxGeometry relative="1" as="geometry">
            <mxPoint x="730" y="620" as="targetPoint" />
          </mxGeometry>
        </mxCell>
        <mxCell id="g-sSblGUvgfWOpClBhpP-66" value="&lt;b&gt;Company&lt;/b&gt;" style="outlineConnect=0;dashed=0;verticalLabelPosition=bottom;verticalAlign=top;align=center;html=1;shape=mxgraph.aws3.office_building;fillColor=#7D7C7C;gradientColor=none;" parent="g-sSblGUvgfWOpClBhpP-138" vertex="1">
          <mxGeometry x="241.5" y="510" width="33" height="79.5" as="geometry" />
        </mxCell>
        <mxCell id="g-sSblGUvgfWOpClBhpP-65" value="&lt;i&gt;&amp;nbsp; Is&amp;nbsp;&amp;nbsp;&lt;/i&gt;" style="edgeStyle=entityRelationEdgeStyle;rounded=0;orthogonalLoop=1;jettySize=auto;html=1;entryX=0;entryY=0.3333333333333333;entryDx=0;entryDy=0;entryPerimeter=0;" parent="g-sSblGUvgfWOpClBhpP-138" source="g-sSblGUvgfWOpClBhpP-58" target="g-sSblGUvgfWOpClBhpP-56" edge="1">
          <mxGeometry x="0.9335" y="-10" relative="1" as="geometry">
            <mxPoint x="600" y="680" as="targetPoint" />
            <mxPoint as="offset" />
          </mxGeometry>
        </mxCell>
        <mxCell id="g-sSblGUvgfWOpClBhpP-69" value="&lt;b&gt;Firm&lt;/b&gt;" style="verticalLabelPosition=bottom;sketch=0;aspect=fixed;html=1;verticalAlign=top;strokeColor=none;align=center;outlineConnect=0;shape=mxgraph.citrix.remote_office;" parent="g-sSblGUvgfWOpClBhpP-138" vertex="1">
          <mxGeometry x="340.5" y="250" width="92" height="41.5" as="geometry" />
        </mxCell>
        <mxCell id="g-sSblGUvgfWOpClBhpP-70" style="edgeStyle=entityRelationEdgeStyle;rounded=0;orthogonalLoop=1;jettySize=auto;html=1;entryX=0;entryY=0.3333333333333333;entryDx=0;entryDy=0;entryPerimeter=0;" parent="g-sSblGUvgfWOpClBhpP-138" source="g-sSblGUvgfWOpClBhpP-69" target="g-sSblGUvgfWOpClBhpP-56" edge="1">
          <mxGeometry relative="1" as="geometry" />
        </mxCell>
        <mxCell id="g-sSblGUvgfWOpClBhpP-73" value="&lt;b&gt;State&lt;/b&gt;" style="verticalLabelPosition=bottom;shadow=0;dashed=0;align=center;html=1;verticalAlign=top;strokeWidth=1;shape=mxgraph.mockup.misc.map;" parent="g-sSblGUvgfWOpClBhpP-138" vertex="1">
          <mxGeometry x="220.5" y="380" width="75" height="71" as="geometry" />
        </mxCell>
        <mxCell id="g-sSblGUvgfWOpClBhpP-74" style="edgeStyle=entityRelationEdgeStyle;rounded=0;orthogonalLoop=1;jettySize=auto;html=1;entryX=0;entryY=0.3333333333333333;entryDx=0;entryDy=0;entryPerimeter=0;" parent="g-sSblGUvgfWOpClBhpP-138" source="g-sSblGUvgfWOpClBhpP-73" target="g-sSblGUvgfWOpClBhpP-56" edge="1">
          <mxGeometry relative="1" as="geometry" />
        </mxCell>
        <mxCell id="g-sSblGUvgfWOpClBhpP-75" value="" style="group" parent="g-sSblGUvgfWOpClBhpP-138" vertex="1" connectable="0">
          <mxGeometry x="175.5" y="790" width="165" height="105" as="geometry" />
        </mxCell>
        <mxCell id="g-sSblGUvgfWOpClBhpP-76" value="" style="rounded=0;whiteSpace=wrap;html=1;" parent="g-sSblGUvgfWOpClBhpP-75" vertex="1">
          <mxGeometry width="165" height="75" as="geometry" />
        </mxCell>
        <mxCell id="g-sSblGUvgfWOpClBhpP-77" value="" style="shape=umlActor;verticalLabelPosition=bottom;verticalAlign=top;html=1;outlineConnect=0;" parent="g-sSblGUvgfWOpClBhpP-75" vertex="1">
          <mxGeometry x="15" y="5" width="30" height="60" as="geometry" />
        </mxCell>
        <mxCell id="g-sSblGUvgfWOpClBhpP-78" value="" style="shape=umlActor;verticalLabelPosition=bottom;verticalAlign=top;html=1;outlineConnect=0;" parent="g-sSblGUvgfWOpClBhpP-75" vertex="1">
          <mxGeometry x="65" y="5" width="30" height="60" as="geometry" />
        </mxCell>
        <mxCell id="g-sSblGUvgfWOpClBhpP-79" value="" style="shape=umlActor;verticalLabelPosition=bottom;verticalAlign=top;html=1;outlineConnect=0;" parent="g-sSblGUvgfWOpClBhpP-75" vertex="1">
          <mxGeometry x="115" y="5" width="30" height="60" as="geometry" />
        </mxCell>
        <mxCell id="g-sSblGUvgfWOpClBhpP-80" value="&lt;b&gt;Association Of Individuals&lt;/b&gt;" style="text;html=1;strokeColor=none;fillColor=none;align=center;verticalAlign=middle;whiteSpace=wrap;rounded=0;" parent="g-sSblGUvgfWOpClBhpP-75" vertex="1">
          <mxGeometry x="17.5" y="75" width="130" height="30" as="geometry" />
        </mxCell>
        <mxCell id="g-sSblGUvgfWOpClBhpP-81" style="edgeStyle=entityRelationEdgeStyle;rounded=0;orthogonalLoop=1;jettySize=auto;html=1;entryX=0;entryY=0.3333333333333333;entryDx=0;entryDy=0;entryPerimeter=0;" parent="g-sSblGUvgfWOpClBhpP-138" source="g-sSblGUvgfWOpClBhpP-76" target="g-sSblGUvgfWOpClBhpP-56" edge="1">
          <mxGeometry relative="1" as="geometry" />
        </mxCell>
        <mxCell id="g-sSblGUvgfWOpClBhpP-82" value="&lt;b&gt;Artificial Juristic Person&lt;/b&gt;" style="shape=umlActor;verticalLabelPosition=bottom;verticalAlign=top;html=1;outlineConnect=0;" parent="g-sSblGUvgfWOpClBhpP-138" vertex="1">
          <mxGeometry x="620" y="170" width="30" height="60" as="geometry" />
        </mxCell>
        <mxCell id="g-sSblGUvgfWOpClBhpP-88" value="&lt;i&gt;&amp;nbsp; Via&amp;nbsp;&amp;nbsp;&lt;/i&gt;" style="edgeStyle=orthogonalEdgeStyle;rounded=0;orthogonalLoop=1;jettySize=auto;html=1;entryX=0.5;entryY=0;entryDx=0;entryDy=0;entryPerimeter=0;curved=1;" parent="g-sSblGUvgfWOpClBhpP-138" source="g-sSblGUvgfWOpClBhpP-85" target="g-sSblGUvgfWOpClBhpP-15" edge="1">
          <mxGeometry x="-0.1457" y="13" relative="1" as="geometry">
            <mxPoint as="offset" />
          </mxGeometry>
        </mxCell>
        <mxCell id="g-sSblGUvgfWOpClBhpP-85" value="Give&lt;br&gt;Manage&lt;br&gt;Review&lt;br&gt;Withdraw" style="rhombus;whiteSpace=wrap;html=1;" parent="g-sSblGUvgfWOpClBhpP-138" vertex="1">
          <mxGeometry x="1220" y="1090" width="140" height="135" as="geometry" />
        </mxCell>
        <mxCell id="g-sSblGUvgfWOpClBhpP-87" value="" style="endArrow=none;html=1;rounded=0;entryX=0.5;entryY=0;entryDx=0;entryDy=0;exitX=0.433;exitY=0.991;exitDx=0;exitDy=0;exitPerimeter=0;" parent="g-sSblGUvgfWOpClBhpP-138" source="g-sSblGUvgfWOpClBhpP-123" target="g-sSblGUvgfWOpClBhpP-85" edge="1">
          <mxGeometry width="50" height="50" relative="1" as="geometry">
            <mxPoint x="1500" y="1120" as="sourcePoint" />
            <mxPoint x="1550" y="1070" as="targetPoint" />
          </mxGeometry>
        </mxCell>
        <mxCell id="g-sSblGUvgfWOpClBhpP-90" value="&amp;nbsp; Is&amp;nbsp;&amp;nbsp;" style="edgeStyle=orthogonalEdgeStyle;rounded=0;orthogonalLoop=1;jettySize=auto;html=1;entryX=1;entryY=0.3333333333333333;entryDx=0;entryDy=0;entryPerimeter=0;curved=1;" parent="g-sSblGUvgfWOpClBhpP-138" source="g-sSblGUvgfWOpClBhpP-89" target="g-sSblGUvgfWOpClBhpP-56" edge="1">
          <mxGeometry x="0.6227" y="77" relative="1" as="geometry">
            <mxPoint as="offset" />
          </mxGeometry>
        </mxCell>
        <mxCell id="g-sSblGUvgfWOpClBhpP-119" value="&lt;i&gt;Is&lt;/i&gt;" style="edgeLabel;html=1;align=center;verticalAlign=middle;resizable=0;points=[];" parent="g-sSblGUvgfWOpClBhpP-90" vertex="1" connectable="0">
          <mxGeometry x="0.3179" y="-12" relative="1" as="geometry">
            <mxPoint x="9" y="-32" as="offset" />
          </mxGeometry>
        </mxCell>
        <mxCell id="g-sSblGUvgfWOpClBhpP-89" value="&lt;b&gt;Data Fiduciary&lt;/b&gt;" style="shape=umlActor;verticalLabelPosition=bottom;verticalAlign=top;html=1;outlineConnect=0;" parent="g-sSblGUvgfWOpClBhpP-138" vertex="1">
          <mxGeometry x="1030" y="231.5" width="30" height="60" as="geometry" />
        </mxCell>
        <mxCell id="g-sSblGUvgfWOpClBhpP-93" value="" style="group" parent="g-sSblGUvgfWOpClBhpP-138" vertex="1" connectable="0">
          <mxGeometry x="1520" y="750" width="60" height="85" as="geometry" />
        </mxCell>
        <mxCell id="g-sSblGUvgfWOpClBhpP-94" value="" style="group" parent="g-sSblGUvgfWOpClBhpP-93" vertex="1" connectable="0">
          <mxGeometry width="60" height="85" as="geometry" />
        </mxCell>
        <mxCell id="g-sSblGUvgfWOpClBhpP-95" value="" style="shape=note;whiteSpace=wrap;html=1;backgroundOutline=1;darkOpacity=0.05;" parent="g-sSblGUvgfWOpClBhpP-94" vertex="1">
          <mxGeometry width="55" height="45" as="geometry" />
        </mxCell>
        <mxCell id="g-sSblGUvgfWOpClBhpP-96" value="&lt;b&gt;Digital Personal Data&lt;/b&gt;" style="text;html=1;strokeColor=none;fillColor=none;align=center;verticalAlign=middle;whiteSpace=wrap;rounded=0;" parent="g-sSblGUvgfWOpClBhpP-94" vertex="1">
          <mxGeometry y="55" width="60" height="30" as="geometry" />
        </mxCell>
        <mxCell id="g-sSblGUvgfWOpClBhpP-97" style="edgeStyle=orthogonalEdgeStyle;rounded=0;orthogonalLoop=1;jettySize=auto;html=1;exitX=0.5;exitY=1;exitDx=0;exitDy=0;exitPerimeter=0;" parent="g-sSblGUvgfWOpClBhpP-94" source="g-sSblGUvgfWOpClBhpP-95" target="g-sSblGUvgfWOpClBhpP-95" edge="1">
          <mxGeometry relative="1" as="geometry" />
        </mxCell>
        <mxCell id="g-sSblGUvgfWOpClBhpP-98" value="&lt;i&gt;&amp;nbsp; Digital Form Of&amp;nbsp;&amp;nbsp;&lt;/i&gt;" style="edgeStyle=orthogonalEdgeStyle;rounded=0;orthogonalLoop=1;jettySize=auto;html=1;entryX=0;entryY=0;entryDx=55;entryDy=37.5;entryPerimeter=0;curved=1;" parent="g-sSblGUvgfWOpClBhpP-138" source="g-sSblGUvgfWOpClBhpP-95" target="g-sSblGUvgfWOpClBhpP-45" edge="1">
          <mxGeometry relative="1" as="geometry" />
        </mxCell>
        <mxCell id="g-sSblGUvgfWOpClBhpP-99" value="&lt;i&gt;&amp;nbsp; Belongs To&amp;nbsp;&amp;nbsp;&lt;/i&gt;" style="edgeStyle=orthogonalEdgeStyle;rounded=0;orthogonalLoop=1;jettySize=auto;html=1;curved=1;" parent="g-sSblGUvgfWOpClBhpP-138" source="g-sSblGUvgfWOpClBhpP-96" target="g-sSblGUvgfWOpClBhpP-29" edge="1">
          <mxGeometry x="-0.116" y="30" relative="1" as="geometry">
            <mxPoint as="offset" />
          </mxGeometry>
        </mxCell>
        <mxCell id="g-sSblGUvgfWOpClBhpP-100" value="&lt;b&gt;Data Processor&lt;/b&gt;" style="shape=umlActor;verticalLabelPosition=bottom;verticalAlign=top;html=1;outlineConnect=0;" parent="g-sSblGUvgfWOpClBhpP-138" vertex="1">
          <mxGeometry x="1200" y="490" width="30" height="60" as="geometry" />
        </mxCell>
        <mxCell id="g-sSblGUvgfWOpClBhpP-104" style="edgeStyle=orthogonalEdgeStyle;rounded=0;orthogonalLoop=1;jettySize=auto;html=1;exitX=0.5;exitY=1;exitDx=0;exitDy=0;curved=1;" parent="g-sSblGUvgfWOpClBhpP-138" source="g-sSblGUvgfWOpClBhpP-103" target="g-sSblGUvgfWOpClBhpP-95" edge="1">
          <mxGeometry relative="1" as="geometry" />
        </mxCell>
        <mxCell id="g-sSblGUvgfWOpClBhpP-105" style="edgeStyle=orthogonalEdgeStyle;rounded=0;orthogonalLoop=1;jettySize=auto;html=1;curved=1;exitX=0.5;exitY=0;exitDx=0;exitDy=0;" parent="g-sSblGUvgfWOpClBhpP-138" source="g-sSblGUvgfWOpClBhpP-103" target="g-sSblGUvgfWOpClBhpP-89" edge="1">
          <mxGeometry relative="1" as="geometry">
            <Array as="points">
              <mxPoint x="1500" y="410" />
              <mxPoint x="1150" y="410" />
              <mxPoint x="1150" y="261" />
            </Array>
          </mxGeometry>
        </mxCell>
        <mxCell id="g-sSblGUvgfWOpClBhpP-120" value="&lt;i style=&quot;border-color: var(--border-color);&quot;&gt;On Behalf Of&lt;/i&gt;" style="edgeLabel;html=1;align=center;verticalAlign=middle;resizable=0;points=[];" parent="g-sSblGUvgfWOpClBhpP-105" vertex="1" connectable="0">
          <mxGeometry x="-0.0323" y="-16" relative="1" as="geometry">
            <mxPoint x="7" y="-24" as="offset" />
          </mxGeometry>
        </mxCell>
        <mxCell id="g-sSblGUvgfWOpClBhpP-108" value="&lt;i&gt;&amp;nbsp; Only&amp;nbsp;&amp;nbsp;&lt;/i&gt;" style="edgeStyle=orthogonalEdgeStyle;rounded=0;orthogonalLoop=1;jettySize=auto;html=1;" parent="g-sSblGUvgfWOpClBhpP-138" source="g-sSblGUvgfWOpClBhpP-103" target="g-sSblGUvgfWOpClBhpP-10" edge="1">
          <mxGeometry x="0.0033" relative="1" as="geometry">
            <mxPoint as="offset" />
          </mxGeometry>
        </mxCell>
        <mxCell id="g-sSblGUvgfWOpClBhpP-103" value="Process" style="rhombus;whiteSpace=wrap;html=1;" parent="g-sSblGUvgfWOpClBhpP-138" vertex="1">
          <mxGeometry x="1460" y="451" width="80" height="80" as="geometry" />
        </mxCell>
        <mxCell id="g-sSblGUvgfWOpClBhpP-110" value="&lt;i&gt;Appointed By Significant,&lt;br&gt;Representative Of&lt;br&gt;&lt;/i&gt;" style="edgeStyle=orthogonalEdgeStyle;rounded=0;orthogonalLoop=1;jettySize=auto;html=1;curved=1;entryX=1;entryY=0.3333333333333333;entryDx=0;entryDy=0;entryPerimeter=0;" parent="g-sSblGUvgfWOpClBhpP-138" source="g-sSblGUvgfWOpClBhpP-109" target="g-sSblGUvgfWOpClBhpP-89" edge="1">
          <mxGeometry relative="1" as="geometry" />
        </mxCell>
        <mxCell id="g-sSblGUvgfWOpClBhpP-109" value="&lt;b&gt;Data Protection Officer&lt;/b&gt;" style="shape=umlActor;verticalLabelPosition=bottom;verticalAlign=top;html=1;outlineConnect=0;" parent="g-sSblGUvgfWOpClBhpP-138" vertex="1">
          <mxGeometry x="1674" y="360" width="30" height="60" as="geometry" />
        </mxCell>
        <mxCell id="g-sSblGUvgfWOpClBhpP-101" style="edgeStyle=orthogonalEdgeStyle;rounded=0;orthogonalLoop=1;jettySize=auto;html=1;entryX=1;entryY=0.3333333333333333;entryDx=0;entryDy=0;entryPerimeter=0;curved=1;" parent="g-sSblGUvgfWOpClBhpP-138" source="g-sSblGUvgfWOpClBhpP-100" target="g-sSblGUvgfWOpClBhpP-56" edge="1">
          <mxGeometry relative="1" as="geometry" />
        </mxCell>
        <mxCell id="g-sSblGUvgfWOpClBhpP-115" style="edgeStyle=orthogonalEdgeStyle;rounded=0;orthogonalLoop=1;jettySize=auto;html=1;curved=1;" parent="g-sSblGUvgfWOpClBhpP-138" source="g-sSblGUvgfWOpClBhpP-114" target="g-sSblGUvgfWOpClBhpP-6" edge="1">
          <mxGeometry relative="1" as="geometry" />
        </mxCell>
        <mxCell id="g-sSblGUvgfWOpClBhpP-117" value="&lt;i&gt;Escalate&lt;/i&gt;" style="edgeStyle=orthogonalEdgeStyle;rounded=0;orthogonalLoop=1;jettySize=auto;html=1;entryX=0;entryY=0.5;entryDx=0;entryDy=0;entryPerimeter=0;curved=1;" parent="g-sSblGUvgfWOpClBhpP-138" source="g-sSblGUvgfWOpClBhpP-114" target="g-sSblGUvgfWOpClBhpP-2" edge="1">
          <mxGeometry relative="1" as="geometry" />
        </mxCell>
        <mxCell id="g-sSblGUvgfWOpClBhpP-114" value="&lt;i style=&quot;border-color: var(--border-color); font-size: 11px;&quot;&gt;Appeals disputes to&lt;/i&gt;" style="rhombus;whiteSpace=wrap;html=1;" parent="g-sSblGUvgfWOpClBhpP-138" vertex="1">
          <mxGeometry x="1390" y="1200" width="80" height="80" as="geometry" />
        </mxCell>
        <mxCell id="g-sSblGUvgfWOpClBhpP-107" style="edgeStyle=orthogonalEdgeStyle;rounded=0;orthogonalLoop=1;jettySize=auto;html=1;curved=1;" parent="g-sSblGUvgfWOpClBhpP-138" source="g-sSblGUvgfWOpClBhpP-100" target="g-sSblGUvgfWOpClBhpP-103" edge="1">
          <mxGeometry relative="1" as="geometry" />
        </mxCell>
        <mxCell id="g-sSblGUvgfWOpClBhpP-124" value="" style="group" parent="g-sSblGUvgfWOpClBhpP-138" vertex="1" connectable="0">
          <mxGeometry x="1250" y="935" width="120" height="105" as="geometry" />
        </mxCell>
        <mxCell id="g-sSblGUvgfWOpClBhpP-123" value="" style="html=1;dashed=1;whiteSpace=wrap;fillColor=none;" parent="g-sSblGUvgfWOpClBhpP-124" vertex="1">
          <mxGeometry width="120" height="105" as="geometry" />
        </mxCell>
        <mxCell id="g-sSblGUvgfWOpClBhpP-29" value="&lt;b&gt;Data Principal&lt;/b&gt;" style="sketch=0;pointerEvents=1;shadow=0;dashed=0;html=1;strokeColor=none;fillColor=#505050;labelPosition=center;verticalLabelPosition=bottom;verticalAlign=top;outlineConnect=0;align=center;shape=mxgraph.office.devices.hard_disk;" parent="g-sSblGUvgfWOpClBhpP-124" vertex="1">
          <mxGeometry x="40" y="18" width="40" height="54" as="geometry" />
        </mxCell>
        <mxCell id="g-sSblGUvgfWOpClBhpP-132" value="" style="group" parent="g-sSblGUvgfWOpClBhpP-138" vertex="1" connectable="0">
          <mxGeometry x="1574" y="1210" width="226" height="110" as="geometry" />
        </mxCell>
        <mxCell id="g-sSblGUvgfWOpClBhpP-131" value="" style="html=1;dashed=1;whiteSpace=wrap;fillColor=none;" parent="g-sSblGUvgfWOpClBhpP-132" vertex="1">
          <mxGeometry width="226" height="110" as="geometry" />
        </mxCell>
        <mxCell id="g-sSblGUvgfWOpClBhpP-1" value="&lt;b&gt;Chairperson&lt;/b&gt;" style="shape=umlActor;verticalLabelPosition=bottom;verticalAlign=top;html=1;outlineConnect=0;" parent="g-sSblGUvgfWOpClBhpP-132" vertex="1">
          <mxGeometry x="166" y="10" width="30" height="60" as="geometry" />
        </mxCell>
        <mxCell id="g-sSblGUvgfWOpClBhpP-128" value="&lt;b&gt;Members&lt;/b&gt;" style="shape=umlActor;verticalLabelPosition=bottom;verticalAlign=top;html=1;outlineConnect=0;" parent="g-sSblGUvgfWOpClBhpP-132" vertex="1">
          <mxGeometry x="26" y="10" width="30" height="60" as="geometry" />
        </mxCell>
        <mxCell id="g-sSblGUvgfWOpClBhpP-129" value="&lt;b&gt;Members&lt;/b&gt;" style="shape=umlActor;verticalLabelPosition=bottom;verticalAlign=top;html=1;outlineConnect=0;" parent="g-sSblGUvgfWOpClBhpP-132" vertex="1">
          <mxGeometry x="99.5" y="10" width="30" height="60" as="geometry" />
        </mxCell>
        <mxCell id="g-sSblGUvgfWOpClBhpP-133" value="&lt;i&gt;Comprised Of&lt;/i&gt;" style="edgeStyle=orthogonalEdgeStyle;rounded=0;orthogonalLoop=1;jettySize=auto;html=1;curved=1;" parent="g-sSblGUvgfWOpClBhpP-138" source="g-sSblGUvgfWOpClBhpP-6" target="g-sSblGUvgfWOpClBhpP-131" edge="1">
          <mxGeometry relative="1" as="geometry" />
        </mxCell>
        <mxCell id="g-sSblGUvgfWOpClBhpP-135" value="&lt;b&gt;&lt;font style=&quot;font-size: 30px;&quot;&gt;THE DIGITAL PERSONAL DATA PROTECTION ACT, 2023&lt;/font&gt;&lt;/b&gt;" style="text;html=1;strokeColor=none;fillColor=none;align=center;verticalAlign=middle;whiteSpace=wrap;rounded=0;" parent="g-sSblGUvgfWOpClBhpP-138" vertex="1">
          <mxGeometry x="400" y="40" width="1230" height="70" as="geometry" />
        </mxCell>
        <mxCell id="g-sSblGUvgfWOpClBhpP-136" value="This is a copy of my original post on Linked&lt;br&gt;https://www.linkedin.com/posts/prs-profile_enacted-india-dpdp-activity-7149133851250823169-cfx2?utm_source=share&amp;amp;utm_medium=member_desktop" style="text;html=1;strokeColor=none;fillColor=none;align=center;verticalAlign=middle;whiteSpace=wrap;rounded=0;" parent="g-sSblGUvgfWOpClBhpP-138" vertex="1">
          <mxGeometry x="1620" y="1500" width="280" height="30" as="geometry" />
        </mxCell>
        <mxCell id="g-sSblGUvgfWOpClBhpP-111" value="&lt;i&gt;&amp;nbsp; Grievance Redressal By&amp;nbsp;&amp;nbsp;&lt;/i&gt;" style="rounded=0;orthogonalLoop=1;jettySize=auto;html=1;entryX=1;entryY=0.3333333333333333;entryDx=0;entryDy=0;entryPerimeter=0;edgeStyle=orthogonalEdgeStyle;curved=1;" parent="g-sSblGUvgfWOpClBhpP-138" source="g-sSblGUvgfWOpClBhpP-29" target="g-sSblGUvgfWOpClBhpP-109" edge="1">
          <mxGeometry x="0.0676" y="35" relative="1" as="geometry">
            <Array as="points">
              <mxPoint x="1790" y="980" />
              <mxPoint x="1790" y="380" />
            </Array>
            <mxPoint y="1" as="offset" />
          </mxGeometry>
        </mxCell>
        <mxCell id="g-sSblGUvgfWOpClBhpP-113" value="" style="edgeStyle=orthogonalEdgeStyle;rounded=0;orthogonalLoop=1;jettySize=auto;html=1;curved=1;" parent="g-sSblGUvgfWOpClBhpP-138" source="g-sSblGUvgfWOpClBhpP-29" target="g-sSblGUvgfWOpClBhpP-114" edge="1">
          <mxGeometry relative="1" as="geometry" />
        </mxCell>
      </root>
    </mxGraphModel>
  </diagram>
</mxfile>
